<mxfile host="app.diagrams.net" modified="2024-01-09T07:38:05.305Z" agent="Mozilla/5.0 (Windows NT 10.0; Win64; x64) AppleWebKit/537.36 (KHTML, like Gecko) Chrome/105.0.0.0 Safari/537.36" etag="1KFaPI7jAEnTLTZKMk98" version="22.1.17" type="github">
  <diagram name="第 1 页" id="-GU9wbzKYo2kmMdxFR-d">
    <mxGraphModel dx="1687" dy="911" grid="1" gridSize="10" guides="1" tooltips="1" connect="1" arrows="1" fold="1" page="1" pageScale="1" pageWidth="1169" pageHeight="827" math="0" shadow="0">
      <root>
        <mxCell id="0" />
        <mxCell id="1" parent="0" />
        <mxCell id="drsyYb6Or7yOjJQy-XR_-30" value="&lt;b&gt;&lt;font style=&quot;font-size: 15px;&quot;&gt;机器人系统&lt;/font&gt;&lt;/b&gt;" style="rounded=1;whiteSpace=wrap;html=1;fillColor=#d5e8d4;strokeColor=#82b366;align=left;verticalAlign=bottom;horizontal=1;labelPosition=center;verticalLabelPosition=top;" parent="1" vertex="1">
          <mxGeometry x="50" y="510" width="350" height="110" as="geometry" />
        </mxCell>
        <mxCell id="drsyYb6Or7yOjJQy-XR_-1" value="" style="sketch=0;pointerEvents=1;shadow=0;dashed=0;html=1;strokeColor=none;fillColor=#505050;labelPosition=center;verticalLabelPosition=bottom;verticalAlign=top;outlineConnect=0;align=center;shape=mxgraph.office.communications.voip_gateway;" parent="1" vertex="1">
          <mxGeometry x="604" y="300" width="51" height="15" as="geometry" />
        </mxCell>
        <mxCell id="drsyYb6Or7yOjJQy-XR_-11" value="5. 发起呼叫到运营商" style="rounded=0;orthogonalLoop=1;jettySize=auto;html=1;exitX=0.55;exitY=0.95;exitDx=0;exitDy=0;exitPerimeter=0;startArrow=classic;startFill=1;endArrow=none;endFill=0;" parent="1" source="drsyYb6Or7yOjJQy-XR_-3" target="drsyYb6Or7yOjJQy-XR_-1" edge="1">
          <mxGeometry relative="1" as="geometry" />
        </mxCell>
        <mxCell id="drsyYb6Or7yOjJQy-XR_-18" value="8. 返回200OK" style="rounded=0;orthogonalLoop=1;jettySize=auto;html=1;exitX=0.96;exitY=0.7;exitDx=0;exitDy=0;exitPerimeter=0;" parent="1" source="drsyYb6Or7yOjJQy-XR_-3" target="drsyYb6Or7yOjJQy-XR_-1" edge="1">
          <mxGeometry x="-0.3485" y="4" relative="1" as="geometry">
            <mxPoint as="offset" />
          </mxGeometry>
        </mxCell>
        <mxCell id="drsyYb6Or7yOjJQy-XR_-20" value="6. 呼叫用户" style="rounded=0;orthogonalLoop=1;jettySize=auto;html=1;exitX=0.07;exitY=0.4;exitDx=0;exitDy=0;exitPerimeter=0;" parent="1" source="drsyYb6Or7yOjJQy-XR_-3" edge="1">
          <mxGeometry relative="1" as="geometry">
            <mxPoint x="170" y="110" as="targetPoint" />
          </mxGeometry>
        </mxCell>
        <mxCell id="drsyYb6Or7yOjJQy-XR_-3" value="CBI" style="ellipse;shape=cloud;whiteSpace=wrap;html=1;align=center;" parent="1" vertex="1">
          <mxGeometry x="300" y="130" width="100" height="60" as="geometry" />
        </mxCell>
        <mxCell id="drsyYb6Or7yOjJQy-XR_-12" style="rounded=0;orthogonalLoop=1;jettySize=auto;html=1;exitX=0.55;exitY=0.95;exitDx=0;exitDy=0;exitPerimeter=0;startArrow=classic;startFill=1;endArrow=none;endFill=0;" parent="1" source="drsyYb6Or7yOjJQy-XR_-4" target="drsyYb6Or7yOjJQy-XR_-1" edge="1">
          <mxGeometry relative="1" as="geometry" />
        </mxCell>
        <mxCell id="drsyYb6Or7yOjJQy-XR_-4" value="赛诺" style="ellipse;shape=cloud;whiteSpace=wrap;html=1;align=center;" parent="1" vertex="1">
          <mxGeometry x="579.5" y="120" width="100" height="60" as="geometry" />
        </mxCell>
        <mxCell id="drsyYb6Or7yOjJQy-XR_-13" style="rounded=0;orthogonalLoop=1;jettySize=auto;html=1;exitX=0.55;exitY=0.95;exitDx=0;exitDy=0;exitPerimeter=0;endArrow=none;endFill=0;startArrow=classic;startFill=1;" parent="1" source="drsyYb6Or7yOjJQy-XR_-5" target="drsyYb6Or7yOjJQy-XR_-1" edge="1">
          <mxGeometry relative="1" as="geometry" />
        </mxCell>
        <mxCell id="drsyYb6Or7yOjJQy-XR_-5" value="IMC" style="ellipse;shape=cloud;whiteSpace=wrap;html=1;align=center;" parent="1" vertex="1">
          <mxGeometry x="850" y="130" width="100" height="60" as="geometry" />
        </mxCell>
        <mxCell id="drsyYb6Or7yOjJQy-XR_-6" value="" style="sketch=0;pointerEvents=1;shadow=0;dashed=0;html=1;strokeColor=none;fillColor=#505050;labelPosition=center;verticalLabelPosition=bottom;verticalAlign=top;outlineConnect=0;align=center;shape=mxgraph.office.users.call_center_agent;" parent="1" vertex="1">
          <mxGeometry x="342" y="750" width="46" height="55" as="geometry" />
        </mxCell>
        <mxCell id="drsyYb6Or7yOjJQy-XR_-8" value="SSC/SG" style="sketch=0;aspect=fixed;pointerEvents=1;shadow=0;dashed=0;html=1;strokeColor=none;labelPosition=center;verticalLabelPosition=bottom;verticalAlign=top;align=center;fillColor=#00188D;shape=mxgraph.azure.server" parent="1" vertex="1">
          <mxGeometry x="605" y="540" width="50" height="15" as="geometry" />
        </mxCell>
        <mxCell id="drsyYb6Or7yOjJQy-XR_-16" value="4. 选择网关" style="edgeStyle=orthogonalEdgeStyle;rounded=0;orthogonalLoop=1;jettySize=auto;html=1;exitX=0.5;exitY=0;exitDx=0;exitDy=0;exitPerimeter=0;" parent="1" source="drsyYb6Or7yOjJQy-XR_-9" target="drsyYb6Or7yOjJQy-XR_-1" edge="1">
          <mxGeometry relative="1" as="geometry" />
        </mxCell>
        <mxCell id="drsyYb6Or7yOjJQy-XR_-9" value="outbound" style="sketch=0;aspect=fixed;pointerEvents=1;shadow=0;dashed=0;html=1;strokeColor=none;labelPosition=center;verticalLabelPosition=bottom;verticalAlign=top;align=center;fillColor=#00188D;shape=mxgraph.azure.server" parent="1" vertex="1">
          <mxGeometry x="605" y="414" width="50" height="15" as="geometry" />
        </mxCell>
        <mxCell id="drsyYb6Or7yOjJQy-XR_-10" value="CRM" style="sketch=0;aspect=fixed;pointerEvents=1;shadow=0;dashed=0;html=1;strokeColor=none;labelPosition=center;verticalLabelPosition=bottom;verticalAlign=top;align=center;fillColor=#00188D;shape=mxgraph.azure.server" parent="1" vertex="1">
          <mxGeometry x="295" y="730" width="50" height="15" as="geometry" />
        </mxCell>
        <mxCell id="drsyYb6Or7yOjJQy-XR_-14" value="2.发起外呼请求" style="rounded=0;orthogonalLoop=1;jettySize=auto;html=1;entryX=0;entryY=0.5;entryDx=0;entryDy=0;entryPerimeter=0;exitX=1;exitY=0.5;exitDx=0;exitDy=0;exitPerimeter=0;" parent="1" source="drsyYb6Or7yOjJQy-XR_-23" target="drsyYb6Or7yOjJQy-XR_-8" edge="1">
          <mxGeometry relative="1" as="geometry">
            <mxPoint x="350" y="547.5" as="sourcePoint" />
          </mxGeometry>
        </mxCell>
        <mxCell id="drsyYb6Or7yOjJQy-XR_-15" value="3.路由到外呼系统" style="edgeStyle=orthogonalEdgeStyle;rounded=0;orthogonalLoop=1;jettySize=auto;html=1;exitX=0.5;exitY=0;exitDx=0;exitDy=0;exitPerimeter=0;entryX=0.5;entryY=1;entryDx=0;entryDy=0;entryPerimeter=0;" parent="1" source="drsyYb6Or7yOjJQy-XR_-8" target="drsyYb6Or7yOjJQy-XR_-9" edge="1">
          <mxGeometry relative="1" as="geometry" />
        </mxCell>
        <mxCell id="drsyYb6Or7yOjJQy-XR_-17" value="1.导入外呼任务" style="edgeStyle=orthogonalEdgeStyle;rounded=0;orthogonalLoop=1;jettySize=auto;html=1;entryX=0.5;entryY=0;entryDx=0;entryDy=0;entryPerimeter=0;endArrow=none;endFill=0;startArrow=classic;startFill=1;exitX=0.5;exitY=1;exitDx=0;exitDy=0;exitPerimeter=0;" parent="1" source="drsyYb6Or7yOjJQy-XR_-23" target="drsyYb6Or7yOjJQy-XR_-10" edge="1">
          <mxGeometry x="0.4286" relative="1" as="geometry">
            <mxPoint x="320" y="577.5" as="sourcePoint" />
            <mxPoint as="offset" />
          </mxGeometry>
        </mxCell>
        <mxCell id="drsyYb6Or7yOjJQy-XR_-21" value="7. 用户接听" style="rounded=0;orthogonalLoop=1;jettySize=auto;html=1;entryX=0.4;entryY=0.1;entryDx=0;entryDy=0;entryPerimeter=0;" parent="1" source="drsyYb6Or7yOjJQy-XR_-19" target="drsyYb6Or7yOjJQy-XR_-3" edge="1">
          <mxGeometry relative="1" as="geometry" />
        </mxCell>
        <mxCell id="drsyYb6Or7yOjJQy-XR_-19" value="用户" style="html=1;verticalLabelPosition=bottom;align=center;labelBackgroundColor=#ffffff;verticalAlign=top;strokeWidth=2;strokeColor=#0080F0;shadow=0;dashed=0;shape=mxgraph.ios7.icons.smartphone;" parent="1" vertex="1">
          <mxGeometry x="150" y="90" width="18" height="30" as="geometry" />
        </mxCell>
        <mxCell id="drsyYb6Or7yOjJQy-XR_-22" value="outbound bot" style="verticalLabelPosition=bottom;aspect=fixed;html=1;shape=mxgraph.salesforce.bots2;" parent="1" vertex="1">
          <mxGeometry x="80" y="517.5" width="60" height="60" as="geometry" />
        </mxCell>
        <mxCell id="drsyYb6Or7yOjJQy-XR_-23" value="FreeSwitch" style="sketch=0;aspect=fixed;pointerEvents=1;shadow=0;dashed=0;html=1;strokeColor=none;labelPosition=center;verticalLabelPosition=bottom;verticalAlign=top;align=center;fillColor=#00188D;shape=mxgraph.azure.server" parent="1" vertex="1">
          <mxGeometry x="295" y="540" width="50" height="15" as="geometry" />
        </mxCell>
        <mxCell id="drsyYb6Or7yOjJQy-XR_-25" value="9. 确认接通" style="edgeStyle=orthogonalEdgeStyle;rounded=0;orthogonalLoop=1;jettySize=auto;html=1;entryX=1;entryY=0.5;entryDx=0;entryDy=0;entryPerimeter=0;" parent="1" source="drsyYb6Or7yOjJQy-XR_-1" target="drsyYb6Or7yOjJQy-XR_-8" edge="1">
          <mxGeometry relative="1" as="geometry">
            <Array as="points">
              <mxPoint x="730" y="310" />
              <mxPoint x="730" y="548" />
            </Array>
          </mxGeometry>
        </mxCell>
        <mxCell id="drsyYb6Or7yOjJQy-XR_-26" value="10. 调用机器人API，触发机器人放音" style="edgeStyle=orthogonalEdgeStyle;rounded=0;orthogonalLoop=1;jettySize=auto;html=1;exitX=0.5;exitY=1;exitDx=0;exitDy=0;exitPerimeter=0;entryX=0.433;entryY=0.992;entryDx=0;entryDy=0;entryPerimeter=0;" parent="1" source="drsyYb6Or7yOjJQy-XR_-8" target="drsyYb6Or7yOjJQy-XR_-22" edge="1">
          <mxGeometry x="-0.31" relative="1" as="geometry">
            <mxPoint x="1" as="offset" />
          </mxGeometry>
        </mxCell>
        <mxCell id="drsyYb6Or7yOjJQy-XR_-27" value="12. 机器人与用户交互" style="edgeStyle=orthogonalEdgeStyle;rounded=0;orthogonalLoop=1;jettySize=auto;html=1;entryX=0;entryY=0.5;entryDx=0;entryDy=0;entryPerimeter=0;startArrow=classic;startFill=1;strokeColor=#FF0000;" parent="1" source="drsyYb6Or7yOjJQy-XR_-22" target="drsyYb6Or7yOjJQy-XR_-23" edge="1">
          <mxGeometry relative="1" as="geometry" />
        </mxCell>
        <mxCell id="drsyYb6Or7yOjJQy-XR_-28" value="11.转发语音流到机器人" style="rounded=0;orthogonalLoop=1;jettySize=auto;html=1;entryX=0.5;entryY=0;entryDx=0;entryDy=0;entryPerimeter=0;strokeColor=#FF0000;startArrow=classic;startFill=1;exitX=0.015;exitY=0.97;exitDx=0;exitDy=0;exitPerimeter=0;" parent="1" source="drsyYb6Or7yOjJQy-XR_-9" target="drsyYb6Or7yOjJQy-XR_-23" edge="1">
          <mxGeometry relative="1" as="geometry" />
        </mxCell>
        <mxCell id="drsyYb6Or7yOjJQy-XR_-31" value="13.机器人交互信息" style="edgeStyle=orthogonalEdgeStyle;rounded=0;orthogonalLoop=1;jettySize=auto;html=1;entryX=0;entryY=0.5;entryDx=0;entryDy=0;entryPerimeter=0;" parent="1" source="drsyYb6Or7yOjJQy-XR_-22" target="drsyYb6Or7yOjJQy-XR_-10" edge="1">
          <mxGeometry relative="1" as="geometry">
            <Array as="points">
              <mxPoint x="60" y="548" />
              <mxPoint x="60" y="738" />
            </Array>
          </mxGeometry>
        </mxCell>
        <mxCell id="drsyYb6Or7yOjJQy-XR_-32" value="14. 呼叫信息" style="edgeStyle=orthogonalEdgeStyle;rounded=0;orthogonalLoop=1;jettySize=auto;html=1;exitX=0.5;exitY=1;exitDx=0;exitDy=0;exitPerimeter=0;entryX=1;entryY=0.5;entryDx=0;entryDy=0;entryPerimeter=0;" parent="1" source="drsyYb6Or7yOjJQy-XR_-8" target="drsyYb6Or7yOjJQy-XR_-10" edge="1">
          <mxGeometry relative="1" as="geometry" />
        </mxCell>
        <mxCell id="xmkgbFA-iy0AewkgBqSU-1" value="Bot Ourbound" style="text;strokeColor=none;fillColor=none;html=1;fontSize=24;fontStyle=1;verticalAlign=middle;align=center;" parent="1" vertex="1">
          <mxGeometry x="70" y="20" width="100" height="40" as="geometry" />
        </mxCell>
        <mxCell id="aashaU6Qa32y-RPEb3OF-1" value="&lt;b&gt;&lt;font style=&quot;font-size: 15px;&quot;&gt;机器人系统&lt;/font&gt;&lt;/b&gt;" style="rounded=1;whiteSpace=wrap;html=1;fillColor=#d5e8d4;strokeColor=#82b366;align=left;verticalAlign=bottom;horizontal=1;labelPosition=center;verticalLabelPosition=top;" vertex="1" parent="1">
          <mxGeometry x="80" y="1339" width="350" height="110" as="geometry" />
        </mxCell>
        <mxCell id="aashaU6Qa32y-RPEb3OF-2" value="" style="sketch=0;pointerEvents=1;shadow=0;dashed=0;html=1;strokeColor=none;fillColor=#505050;labelPosition=center;verticalLabelPosition=bottom;verticalAlign=top;outlineConnect=0;align=center;shape=mxgraph.office.communications.voip_gateway;" vertex="1" parent="1">
          <mxGeometry x="634" y="1129" width="51" height="15" as="geometry" />
        </mxCell>
        <mxCell id="aashaU6Qa32y-RPEb3OF-3" value="4. 发起呼叫到运营商" style="rounded=0;orthogonalLoop=1;jettySize=auto;html=1;exitX=0.55;exitY=0.95;exitDx=0;exitDy=0;exitPerimeter=0;startArrow=classic;startFill=1;endArrow=none;endFill=0;" edge="1" parent="1" source="aashaU6Qa32y-RPEb3OF-6" target="aashaU6Qa32y-RPEb3OF-2">
          <mxGeometry relative="1" as="geometry" />
        </mxCell>
        <mxCell id="aashaU6Qa32y-RPEb3OF-4" value="7. 返回200OK" style="rounded=0;orthogonalLoop=1;jettySize=auto;html=1;exitX=0.96;exitY=0.7;exitDx=0;exitDy=0;exitPerimeter=0;" edge="1" parent="1" source="aashaU6Qa32y-RPEb3OF-6" target="aashaU6Qa32y-RPEb3OF-2">
          <mxGeometry x="-0.3485" y="4" relative="1" as="geometry">
            <mxPoint as="offset" />
          </mxGeometry>
        </mxCell>
        <mxCell id="aashaU6Qa32y-RPEb3OF-5" value="5. 呼叫用户" style="rounded=0;orthogonalLoop=1;jettySize=auto;html=1;exitX=0.07;exitY=0.4;exitDx=0;exitDy=0;exitPerimeter=0;" edge="1" parent="1" source="aashaU6Qa32y-RPEb3OF-6">
          <mxGeometry relative="1" as="geometry">
            <mxPoint x="200" y="939" as="targetPoint" />
          </mxGeometry>
        </mxCell>
        <mxCell id="aashaU6Qa32y-RPEb3OF-6" value="CBI" style="ellipse;shape=cloud;whiteSpace=wrap;html=1;align=center;" vertex="1" parent="1">
          <mxGeometry x="330" y="959" width="100" height="60" as="geometry" />
        </mxCell>
        <mxCell id="aashaU6Qa32y-RPEb3OF-7" style="rounded=0;orthogonalLoop=1;jettySize=auto;html=1;exitX=0.55;exitY=0.95;exitDx=0;exitDy=0;exitPerimeter=0;startArrow=classic;startFill=1;endArrow=none;endFill=0;" edge="1" parent="1" source="aashaU6Qa32y-RPEb3OF-8" target="aashaU6Qa32y-RPEb3OF-2">
          <mxGeometry relative="1" as="geometry" />
        </mxCell>
        <mxCell id="aashaU6Qa32y-RPEb3OF-8" value="赛诺" style="ellipse;shape=cloud;whiteSpace=wrap;html=1;align=center;" vertex="1" parent="1">
          <mxGeometry x="609.5" y="949" width="100" height="60" as="geometry" />
        </mxCell>
        <mxCell id="aashaU6Qa32y-RPEb3OF-9" style="rounded=0;orthogonalLoop=1;jettySize=auto;html=1;exitX=0.55;exitY=0.95;exitDx=0;exitDy=0;exitPerimeter=0;endArrow=none;endFill=0;startArrow=classic;startFill=1;" edge="1" parent="1" source="aashaU6Qa32y-RPEb3OF-10" target="aashaU6Qa32y-RPEb3OF-2">
          <mxGeometry relative="1" as="geometry" />
        </mxCell>
        <mxCell id="aashaU6Qa32y-RPEb3OF-10" value="IMC" style="ellipse;shape=cloud;whiteSpace=wrap;html=1;align=center;" vertex="1" parent="1">
          <mxGeometry x="880" y="959" width="100" height="60" as="geometry" />
        </mxCell>
        <mxCell id="aashaU6Qa32y-RPEb3OF-11" value="" style="sketch=0;pointerEvents=1;shadow=0;dashed=0;html=1;strokeColor=none;fillColor=#505050;labelPosition=center;verticalLabelPosition=bottom;verticalAlign=top;outlineConnect=0;align=center;shape=mxgraph.office.users.call_center_agent;" vertex="1" parent="1">
          <mxGeometry x="375" y="1590" width="46" height="55" as="geometry" />
        </mxCell>
        <mxCell id="aashaU6Qa32y-RPEb3OF-12" value="ZO/SSC/SG" style="sketch=0;aspect=fixed;pointerEvents=1;shadow=0;dashed=0;html=1;strokeColor=none;labelPosition=center;verticalLabelPosition=bottom;verticalAlign=top;align=center;fillColor=#00188D;shape=mxgraph.azure.server" vertex="1" parent="1">
          <mxGeometry x="635" y="1369" width="50" height="15" as="geometry" />
        </mxCell>
        <mxCell id="aashaU6Qa32y-RPEb3OF-13" value="3. 选择网关" style="edgeStyle=orthogonalEdgeStyle;rounded=0;orthogonalLoop=1;jettySize=auto;html=1;exitX=0.5;exitY=0;exitDx=0;exitDy=0;exitPerimeter=0;" edge="1" parent="1" source="aashaU6Qa32y-RPEb3OF-14" target="aashaU6Qa32y-RPEb3OF-2">
          <mxGeometry relative="1" as="geometry" />
        </mxCell>
        <mxCell id="aashaU6Qa32y-RPEb3OF-14" value="outbound" style="sketch=0;aspect=fixed;pointerEvents=1;shadow=0;dashed=0;html=1;strokeColor=none;labelPosition=center;verticalLabelPosition=bottom;verticalAlign=top;align=center;fillColor=#00188D;shape=mxgraph.azure.server" vertex="1" parent="1">
          <mxGeometry x="635" y="1243" width="50" height="15" as="geometry" />
        </mxCell>
        <mxCell id="aashaU6Qa32y-RPEb3OF-15" value="CRM" style="sketch=0;aspect=fixed;pointerEvents=1;shadow=0;dashed=0;html=1;strokeColor=none;labelPosition=center;verticalLabelPosition=bottom;verticalAlign=top;align=center;fillColor=#00188D;shape=mxgraph.azure.server" vertex="1" parent="1">
          <mxGeometry x="325" y="1559" width="50" height="15" as="geometry" />
        </mxCell>
        <mxCell id="aashaU6Qa32y-RPEb3OF-16" value="9.发起机器人服务请求" style="rounded=0;orthogonalLoop=1;jettySize=auto;html=1;exitX=0;exitY=0.5;exitDx=0;exitDy=0;exitPerimeter=0;entryX=1;entryY=0.5;entryDx=0;entryDy=0;entryPerimeter=0;" edge="1" parent="1" source="aashaU6Qa32y-RPEb3OF-12" target="aashaU6Qa32y-RPEb3OF-22">
          <mxGeometry relative="1" as="geometry">
            <mxPoint x="380" y="1376.5" as="sourcePoint" />
            <mxPoint x="230" y="1210" as="targetPoint" />
          </mxGeometry>
        </mxCell>
        <mxCell id="aashaU6Qa32y-RPEb3OF-17" value="2.系统发起外呼" style="edgeStyle=orthogonalEdgeStyle;rounded=0;orthogonalLoop=1;jettySize=auto;html=1;exitX=0.5;exitY=0;exitDx=0;exitDy=0;exitPerimeter=0;entryX=0.5;entryY=1;entryDx=0;entryDy=0;entryPerimeter=0;" edge="1" parent="1" source="aashaU6Qa32y-RPEb3OF-12" target="aashaU6Qa32y-RPEb3OF-14">
          <mxGeometry relative="1" as="geometry" />
        </mxCell>
        <mxCell id="aashaU6Qa32y-RPEb3OF-19" value="6. 用户接听" style="rounded=0;orthogonalLoop=1;jettySize=auto;html=1;entryX=0.4;entryY=0.1;entryDx=0;entryDy=0;entryPerimeter=0;" edge="1" parent="1" source="aashaU6Qa32y-RPEb3OF-20" target="aashaU6Qa32y-RPEb3OF-6">
          <mxGeometry relative="1" as="geometry" />
        </mxCell>
        <mxCell id="aashaU6Qa32y-RPEb3OF-20" value="用户" style="html=1;verticalLabelPosition=bottom;align=center;labelBackgroundColor=#ffffff;verticalAlign=top;strokeWidth=2;strokeColor=#0080F0;shadow=0;dashed=0;shape=mxgraph.ios7.icons.smartphone;" vertex="1" parent="1">
          <mxGeometry x="180" y="919" width="18" height="30" as="geometry" />
        </mxCell>
        <mxCell id="aashaU6Qa32y-RPEb3OF-21" value="outbound bot" style="verticalLabelPosition=bottom;aspect=fixed;html=1;shape=mxgraph.salesforce.bots2;" vertex="1" parent="1">
          <mxGeometry x="110" y="1346.5" width="60" height="60" as="geometry" />
        </mxCell>
        <mxCell id="aashaU6Qa32y-RPEb3OF-22" value="FreeSwitch" style="sketch=0;aspect=fixed;pointerEvents=1;shadow=0;dashed=0;html=1;strokeColor=none;labelPosition=center;verticalLabelPosition=bottom;verticalAlign=top;align=center;fillColor=#00188D;shape=mxgraph.azure.server" vertex="1" parent="1">
          <mxGeometry x="325" y="1369" width="50" height="15" as="geometry" />
        </mxCell>
        <mxCell id="aashaU6Qa32y-RPEb3OF-23" value="8. 确认接通" style="edgeStyle=orthogonalEdgeStyle;rounded=0;orthogonalLoop=1;jettySize=auto;html=1;entryX=1;entryY=0.5;entryDx=0;entryDy=0;entryPerimeter=0;" edge="1" parent="1" source="aashaU6Qa32y-RPEb3OF-2" target="aashaU6Qa32y-RPEb3OF-12">
          <mxGeometry relative="1" as="geometry">
            <Array as="points">
              <mxPoint x="760" y="1139" />
              <mxPoint x="760" y="1377" />
            </Array>
          </mxGeometry>
        </mxCell>
        <mxCell id="aashaU6Qa32y-RPEb3OF-25" value="11. 机器人与用户交互" style="edgeStyle=orthogonalEdgeStyle;rounded=0;orthogonalLoop=1;jettySize=auto;html=1;entryX=0;entryY=0.5;entryDx=0;entryDy=0;entryPerimeter=0;startArrow=classic;startFill=1;strokeColor=#FF0000;" edge="1" parent="1" source="aashaU6Qa32y-RPEb3OF-21" target="aashaU6Qa32y-RPEb3OF-22">
          <mxGeometry relative="1" as="geometry" />
        </mxCell>
        <mxCell id="aashaU6Qa32y-RPEb3OF-26" value="10.转发语音流到机器人" style="rounded=0;orthogonalLoop=1;jettySize=auto;html=1;entryX=0.5;entryY=0;entryDx=0;entryDy=0;entryPerimeter=0;strokeColor=#FF0000;startArrow=classic;startFill=1;exitX=0.015;exitY=0.97;exitDx=0;exitDy=0;exitPerimeter=0;" edge="1" parent="1" source="aashaU6Qa32y-RPEb3OF-14" target="aashaU6Qa32y-RPEb3OF-22">
          <mxGeometry relative="1" as="geometry" />
        </mxCell>
        <mxCell id="aashaU6Qa32y-RPEb3OF-27" value="13.机器人交互信息" style="edgeStyle=orthogonalEdgeStyle;rounded=0;orthogonalLoop=1;jettySize=auto;html=1;entryX=0;entryY=0.5;entryDx=0;entryDy=0;entryPerimeter=0;" edge="1" parent="1" source="aashaU6Qa32y-RPEb3OF-21" target="aashaU6Qa32y-RPEb3OF-15">
          <mxGeometry relative="1" as="geometry">
            <Array as="points">
              <mxPoint x="90" y="1377" />
              <mxPoint x="90" y="1567" />
            </Array>
          </mxGeometry>
        </mxCell>
        <mxCell id="aashaU6Qa32y-RPEb3OF-28" value="12. 呼叫信息" style="edgeStyle=orthogonalEdgeStyle;rounded=0;orthogonalLoop=1;jettySize=auto;html=1;exitX=0.5;exitY=1;exitDx=0;exitDy=0;exitPerimeter=0;entryX=1;entryY=0.5;entryDx=0;entryDy=0;entryPerimeter=0;" edge="1" parent="1" source="aashaU6Qa32y-RPEb3OF-12" target="aashaU6Qa32y-RPEb3OF-15">
          <mxGeometry relative="1" as="geometry" />
        </mxCell>
        <mxCell id="aashaU6Qa32y-RPEb3OF-29" value="ZingZO&lt;br&gt;Outbound To BOT" style="text;strokeColor=none;fillColor=none;html=1;fontSize=24;fontStyle=1;verticalAlign=middle;align=center;" vertex="1" parent="1">
          <mxGeometry x="70" y="860" width="100" height="40" as="geometry" />
        </mxCell>
        <mxCell id="aashaU6Qa32y-RPEb3OF-30" value="" style="endArrow=classic;html=1;rounded=0;entryX=0;entryY=0.5;entryDx=0;entryDy=0;entryPerimeter=0;" edge="1" parent="1" target="aashaU6Qa32y-RPEb3OF-12">
          <mxGeometry width="50" height="50" relative="1" as="geometry">
            <mxPoint x="350" y="1560" as="sourcePoint" />
            <mxPoint x="400" y="1510" as="targetPoint" />
          </mxGeometry>
        </mxCell>
        <mxCell id="aashaU6Qa32y-RPEb3OF-31" value="1.导入外呼任务" style="edgeLabel;html=1;align=center;verticalAlign=middle;resizable=0;points=[];" vertex="1" connectable="0" parent="aashaU6Qa32y-RPEb3OF-30">
          <mxGeometry x="-0.4565" y="-1" relative="1" as="geometry">
            <mxPoint as="offset" />
          </mxGeometry>
        </mxCell>
      </root>
    </mxGraphModel>
  </diagram>
</mxfile>
